<svg width="94" height="41" fill="none" xmlns="http://www.w3.org/2000/svg"><path stroke="#F17007" d="M0.5 7.544H93.5V32.92H0.5z"/><path d="M22.005 25.799a5.519 5.519 0 01-.94-.09v-1.22c.133.026.26.046.38.06.12.013.216.02.29.02.306 0 .523-.087.65-.26.126-.174.19-.454.19-.84v-6.59h1.56v6.59c0 .52-.074.953-.22 1.3-.14.346-.367.603-.68.77-.307.173-.717.26-1.23.26zm5.068-5.88l-.59-.47c.234-.24.397-.464.49-.67.1-.207.15-.427.15-.66l.35.36h-1.13v-1.6h1.63v1.03c0 .38-.066.726-.2 1.04-.133.313-.366.636-.7.97zm1.682 4.01l3.24-7.05h1.29l3.28 7.05h-1.58l-.85-1.96.61.43h-4.19l.62-.43-.85 1.96h-1.57zm3.88-5.41l-1.29 3.06-.27-.38h3.15l-.23.38-1.32-3.06h-.04zm8.782 5.52c-.753 0-1.4-.15-1.94-.45-.54-.3-.957-.72-1.25-1.26-.287-.547-.43-1.19-.43-1.93s.143-1.38.43-1.92c.293-.54.71-.96 1.25-1.26.54-.3 1.187-.45 1.94-.45.487 0 .93.07 1.33.21.4.133.74.33 1.02.59l-.49 1.23c-.307-.24-.6-.41-.88-.51-.273-.1-.583-.15-.93-.15-.66 0-1.167.196-1.52.59-.347.386-.52.943-.52 1.67 0 .726.173 1.286.52 1.68.353.393.86.59 1.52.59.347 0 .657-.05.93-.15.28-.1.573-.27.88-.51l.49 1.23c-.28.253-.62.45-1.02.59-.4.14-.843.21-1.33.21zm4.436-.11v-7.05h1.56v2.83h3.23v-2.83h1.57v7.05h-1.57v-2.93h-3.23v2.93h-1.56zm8.793 0v-7.05h4.9v1.21h-3.41v1.65h3.17v1.22h-3.17v1.76h3.41v1.21h-4.9zm2.11-7.65l-1.66-1.75h1.53l1.19 1.75h-1.06zm6.506 7.65v-5.78h-2.24v-1.27h6.04v1.27h-2.24v5.78h-1.56zm5.65 0v-7.05h4.9v1.21h-3.41v1.65h3.17v1.22h-3.17v1.76h3.41v1.21h-4.9z" fill="#F17007"/></svg>