<svg width="103" height="16" fill="none" xmlns="http://www.w3.org/2000/svg"><circle cx="8" cy="8" r="8" fill="#F17007"/><path d="M5.72 12V4.95h4.9v1.21H7.21v1.65h3.17v1.22H7.21v1.76h3.41V12h-4.9zm6.886 0V8.25a10.69 10.69 0 00-.08-1.32h1.45l.11.94h-.12c.167-.333.404-.59.71-.77.307-.18.664-.27 1.07-.27.594 0 1.037.173 1.33.52.3.34.45.87.45 1.59V12h-1.51V9.01c0-.367-.066-.627-.2-.78-.133-.153-.333-.23-.6-.23-.333 0-.6.107-.8.32-.2.207-.3.487-.3.84V12h-1.51zm12.825.11c-.453 0-.866-.05-1.24-.15-.373-.1-.69-.24-.95-.42l.39-1c.26.16.547.287.86.38.32.093.637.14.95.14.294 0 .51-.047.65-.14.14-.093.21-.22.21-.38a.372.372 0 00-.14-.31c-.086-.073-.223-.127-.41-.16l-1.03-.19c-.433-.087-.763-.247-.99-.48-.226-.233-.34-.537-.34-.91 0-.327.087-.613.26-.86.18-.253.437-.45.77-.59.334-.14.724-.21 1.17-.21.38 0 .74.047 1.08.14.34.093.63.237.87.43l-.41.97a2.62 2.62 0 00-.72-.37 2.327 2.327 0 00-.77-.14c-.32 0-.55.053-.69.16a.46.46 0 00-.21.39c0 .12.04.22.12.3.087.08.217.14.39.18l1.04.19c.447.08.787.23 1.02.45.234.22.35.523.35.91 0 .353-.093.653-.28.9-.186.247-.45.437-.79.57-.333.133-.72.2-1.16.2zm6.14 0c-.44 0-.827-.107-1.16-.32a2.136 2.136 0 01-.78-.91c-.187-.393-.28-.867-.28-1.42 0-.547.093-1.017.28-1.41a2.07 2.07 0 01.78-.9c.333-.213.72-.32 1.16-.32.406 0 .77.1 1.09.3.326.193.54.457.64.79h-.11l.12-.99h1.45l-.06.67c-.014.22-.02.437-.02.65V12h-1.5l-.01-.95h.12c-.107.32-.32.577-.64.77-.32.193-.68.29-1.08.29zm.46-1.14c.346 0 .626-.123.84-.37.213-.247.32-.627.32-1.14 0-.513-.107-.89-.32-1.13-.214-.24-.494-.36-.84-.36-.347 0-.627.12-.84.36-.214.24-.32.617-.32 1.13 0 .513.103.893.31 1.14.213.247.496.37.85.37zM38.34 12l-2.19-5.07h1.59l1.45 3.68h-.33l1.5-3.68h1.49L39.64 12h-1.3zm7.32.11c-.54 0-1.01-.107-1.41-.32-.393-.22-.7-.527-.92-.92-.213-.393-.32-.863-.32-1.41 0-.54.107-1.007.32-1.4a2.28 2.28 0 01.92-.91c.4-.213.87-.32 1.41-.32.54 0 1.01.107 1.41.32.4.213.707.517.92.91.22.393.33.86.33 1.4 0 .547-.11 1.017-.33 1.41-.213.393-.52.7-.92.92-.4.213-.87.32-1.41.32zm0-1.14c.347 0 .62-.123.82-.37.207-.247.31-.627.31-1.14 0-.513-.103-.89-.31-1.13-.2-.24-.473-.36-.82-.36-.346 0-.623.12-.83.36-.2.24-.3.617-.3 1.13 0 .513.1.893.3 1.14.207.247.484.37.83.37zM50.297 12V6.93h1.51V12h-1.51zm-.06-5.9V4.69h1.62V6.1h-1.62zM54.03 12V8.27c0-.22-.007-.443-.02-.67a7.329 7.329 0 00-.05-.67h1.45l.17 1.48h-.23c.067-.36.173-.657.32-.89.153-.233.34-.407.56-.52.227-.113.483-.17.77-.17.127 0 .227.007.3.02a.872.872 0 01.22.05l-.01 1.33a1.77 1.77 0 00-.72-.14c-.28 0-.513.053-.7.16-.18.107-.317.263-.41.47-.087.207-.13.457-.13.75V12h-1.52zm8.944 2.16V8.25a10.772 10.772 0 00-.08-1.32h1.45l.12.99h-.11c.1-.333.31-.597.63-.79.32-.2.686-.3 1.1-.3.44 0 .826.107 1.16.32.333.207.593.507.78.9.193.393.29.863.29 1.41 0 .553-.097 1.027-.29 1.42a2.138 2.138 0 01-.78.91c-.334.213-.72.32-1.16.32-.407 0-.77-.097-1.09-.29a1.418 1.418 0 01-.63-.77h.12v3.11h-1.51zm2.65-3.19c.353 0 .636-.123.85-.37.213-.247.32-.627.32-1.14 0-.513-.107-.89-.32-1.13-.214-.24-.497-.36-.85-.36a1.1 1.1 0 00-.85.36c-.214.24-.32.617-.32 1.13 0 .513.106.893.32 1.14.22.247.503.37.85.37zM70.292 12V4.64h1.51V12h-1.51zm5.584.11c-.633 0-1.103-.173-1.41-.52-.307-.353-.46-.887-.46-1.6V6.93h1.51v3.06c0 .32.063.557.19.71.133.153.337.23.61.23.3 0 .547-.103.74-.31.2-.213.3-.497.3-.85V6.93h1.51V12h-1.47v-.97h.14c-.153.34-.373.607-.66.8-.28.187-.613.28-1 .28zm7.104 0a4.79 4.79 0 01-1.24-.15c-.373-.1-.69-.24-.95-.42l.39-1c.26.16.547.287.86.38.32.093.637.14.95.14.294 0 .51-.047.65-.14.14-.093.21-.22.21-.38a.371.371 0 00-.14-.31c-.086-.073-.223-.127-.41-.16l-1.03-.19c-.433-.087-.763-.247-.99-.48-.226-.233-.34-.537-.34-.91 0-.327.087-.613.26-.86.18-.253.437-.45.77-.59.334-.14.724-.21 1.17-.21.38 0 .74.047 1.08.14.34.093.63.237.87.43l-.41.97a2.617 2.617 0 00-.72-.37 2.327 2.327 0 00-.77-.14c-.32 0-.55.053-.69.16a.46.46 0 00-.21.39c0 .12.04.22.12.3.087.08.217.14.39.18l1.04.19c.447.08.787.23 1.02.45.234.22.35.523.35.91 0 .353-.093.653-.28.9-.186.247-.45.437-.79.57-.333.133-.72.2-1.16.2zM101.75 8a.413.413 0 01-.044.17.36.36 0 01-.05.055.55.55 0 01-.056.073l-3.75 3.208a.765.765 0 01-.59.153c-.219-.03-.4-.143-.474-.298-.075-.154-.031-.326.114-.45l2.869-2.452h-9.894c-.345 0-.625-.206-.625-.459s.28-.458.625-.458h9.894L96.9 5.09c-.145-.125-.189-.296-.114-.45.074-.155.255-.269.475-.299.22-.03.444.029.589.153l3.75 3.208a.55.55 0 01.056.074.36.36 0 01.05.055.413.413 0 01.044.17z" fill="#1D1513"/></svg>