<svg width="112" height="16" fill="none" xmlns="http://www.w3.org/2000/svg"><circle cx="8" cy="8" r="8" fill="#F17007"/><path d="M5.72 12V4.95h3.25c.773 0 1.37.163 1.79.49.42.327.63.773.63 1.34 0 .42-.127.777-.38 1.07-.247.293-.587.49-1.02.59v-.16c.507.087.897.28 1.17.58.28.293.42.677.42 1.15 0 .627-.223 1.117-.67 1.47-.44.347-1.05.52-1.83.52H5.72zm1.49-1.16h1.68c.387 0 .683-.073.89-.22.207-.147.31-.38.31-.7 0-.327-.103-.56-.31-.7-.207-.147-.503-.22-.89-.22H7.21v1.84zm0-2.99h1.48c.407 0 .707-.073.9-.22.193-.147.29-.367.29-.66 0-.287-.097-.503-.29-.65-.193-.147-.493-.22-.9-.22H7.21v1.75zm8.343 4.26c-.44 0-.827-.107-1.16-.32a2.138 2.138 0 01-.78-.91c-.187-.393-.28-.867-.28-1.42 0-.547.093-1.017.28-1.41.187-.393.447-.693.78-.9.333-.213.72-.32 1.16-.32.407 0 .77.1 1.09.3.327.193.54.457.64.79h-.11l.12-.99h1.45l-.06.67c-.013.22-.02.437-.02.65V12h-1.5l-.01-.95h.12c-.107.32-.32.577-.64.77-.32.193-.68.29-1.08.29zm.46-1.14c.347 0 .627-.123.84-.37.213-.247.32-.627.32-1.14 0-.513-.107-.89-.32-1.13-.213-.24-.493-.36-.84-.36s-.627.12-.84.36c-.213.24-.32.617-.32 1.13 0 .513.103.893.31 1.14.213.247.497.37.85.37zM20.9 12V8.25a10.772 10.772 0 00-.08-1.32h1.45l.11.94h-.12c.167-.333.404-.59.71-.77.307-.18.664-.27 1.07-.27.594 0 1.037.173 1.33.52.3.34.45.87.45 1.59V12h-1.51V9.01c0-.367-.066-.627-.2-.78-.133-.153-.333-.23-.6-.23-.333 0-.6.107-.8.32-.2.207-.3.487-.3.84V12h-1.51zm9.123.11c-.44 0-.83-.107-1.17-.32a2.203 2.203 0 01-.79-.91c-.187-.393-.28-.867-.28-1.42 0-.547.093-1.017.28-1.41.187-.393.45-.693.79-.9.34-.213.73-.32 1.17-.32.4 0 .757.097 1.07.29.32.187.533.44.64.76h-.13V4.64h1.51V12h-1.49v-.99h.13c-.107.333-.32.6-.64.8-.32.2-.683.3-1.09.3zm.45-1.14c.347 0 .627-.123.84-.37.213-.247.32-.627.32-1.14 0-.513-.107-.89-.32-1.13-.213-.24-.493-.36-.84-.36a1.1 1.1 0 00-.85.36c-.213.24-.32.617-.32 1.13 0 .513.107.893.32 1.14.22.247.503.37.85.37zm7.428 1.14c-.88 0-1.566-.237-2.06-.71-.493-.473-.74-1.117-.74-1.93 0-.527.104-.987.31-1.38.214-.393.507-.7.88-.92.38-.227.824-.34 1.33-.34.5 0 .917.107 1.25.32.34.213.594.513.76.9.174.38.26.823.26 1.33v.35h-3.55v-.75h2.45l-.17.14c0-.42-.086-.737-.26-.95-.166-.22-.41-.33-.73-.33-.353 0-.626.13-.82.39-.186.26-.28.633-.28 1.12v.16c0 .493.12.86.36 1.1.247.24.6.36 1.06.36.274 0 .53-.033.77-.1a2.43 2.43 0 00.7-.34l.42 1c-.253.187-.546.33-.88.43-.326.1-.68.15-1.06.15zm4.105-2.28V8.65h3.15v1.18h-3.15zm7.394 2.28c-.44 0-.827-.107-1.16-.32a2.138 2.138 0 01-.78-.91c-.187-.393-.28-.867-.28-1.42 0-.547.093-1.017.28-1.41.186-.393.446-.693.78-.9.333-.213.72-.32 1.16-.32.406 0 .77.1 1.09.3.326.193.54.457.64.79h-.11l.12-.99h1.45l-.06.67c-.014.22-.02.437-.02.65V12h-1.5l-.01-.95h.12c-.107.32-.32.577-.64.77-.32.193-.68.29-1.08.29zm.46-1.14c.346 0 .626-.123.84-.37.213-.247.32-.627.32-1.14 0-.513-.107-.89-.32-1.13-.214-.24-.494-.36-.84-.36-.347 0-.627.12-.84.36-.214.24-.32.617-.32 1.13 0 .513.103.893.31 1.14.213.247.496.37.85.37zM54.748 12V8.25a10.772 10.772 0 00-.08-1.32h1.45l.11.94h-.12c.167-.333.403-.59.71-.77.307-.18.663-.27 1.07-.27.593 0 1.037.173 1.33.52.3.34.45.87.45 1.59V12h-1.51V9.01c0-.367-.067-.627-.2-.78-.133-.153-.333-.23-.6-.23-.333 0-.6.107-.8.32-.2.207-.3.487-.3.84V12h-1.51zm7.133 0V8.25a10.69 10.69 0 00-.08-1.32h1.45l.11.94h-.12c.166-.333.403-.59.71-.77.306-.18.663-.27 1.07-.27.593 0 1.036.173 1.33.52.3.34.45.87.45 1.59V12h-1.51V9.01c0-.367-.067-.627-.2-.78-.134-.153-.334-.23-.6-.23-.334 0-.6.107-.8.32-.2.207-.3.487-.3.84V12h-1.51zm9.533.11c-.54 0-1.01-.107-1.41-.32-.394-.22-.7-.527-.92-.92-.214-.393-.32-.863-.32-1.41 0-.54.106-1.007.32-1.4a2.28 2.28 0 01.92-.91c.4-.213.87-.32 1.41-.32.54 0 1.01.107 1.41.32.4.213.706.517.92.91.22.393.33.86.33 1.4 0 .547-.11 1.017-.33 1.41-.214.393-.52.7-.92.92-.4.213-.87.32-1.41.32zm0-1.14c.346 0 .62-.123.82-.37.206-.247.31-.627.31-1.14 0-.513-.104-.89-.31-1.13-.2-.24-.474-.36-.82-.36-.347 0-.624.12-.83.36-.2.24-.3.617-.3 1.13 0 .513.1.893.3 1.14.206.247.483.37.83.37zM76.05 12V8.25a10.772 10.772 0 00-.08-1.32h1.45l.11.94h-.12c.166-.333.403-.59.71-.77.306-.18.663-.27 1.07-.27.593 0 1.036.173 1.33.52.3.34.45.87.45 1.59V12h-1.51V9.01c0-.367-.067-.627-.2-.78-.134-.153-.334-.23-.6-.23-.334 0-.6.107-.8.32-.2.207-.3.487-.3.84V12h-1.51zm9.573.11c-.54 0-1.014-.107-1.42-.32a2.234 2.234 0 01-.94-.92c-.22-.4-.33-.873-.33-1.42 0-.553.11-1.023.33-1.41.226-.393.54-.693.94-.9.406-.207.88-.31 1.42-.31.34 0 .67.05.99.15.326.1.593.24.8.42l-.44 1.04a1.588 1.588 0 00-.58-.34c-.214-.08-.42-.12-.62-.12-.407 0-.724.127-.95.38-.227.253-.34.62-.34 1.1 0 .48.113.847.34 1.1.226.253.543.38.95.38.193 0 .396-.037.61-.11a1.77 1.77 0 00.59-.33l.44 1.03c-.214.18-.484.323-.81.43-.32.1-.647.15-.98.15zm6.1 0c-.88 0-1.567-.237-2.06-.71-.494-.473-.74-1.117-.74-1.93 0-.527.103-.987.31-1.38.213-.393.506-.7.88-.92.38-.227.823-.34 1.33-.34.5 0 .916.107 1.25.32.34.213.593.513.76.9.173.38.26.823.26 1.33v.35h-3.55v-.75h2.45l-.17.14c0-.42-.087-.737-.26-.95-.167-.22-.41-.33-.73-.33-.354 0-.627.13-.82.39-.187.26-.28.633-.28 1.12v.16c0 .493.12.86.36 1.1.246.24.6.36 1.06.36.273 0 .53-.033.77-.1a2.43 2.43 0 00.7-.34l.42 1c-.254.187-.547.33-.88.43-.327.1-.68.15-1.06.15zM110.75 8a.413.413 0 01-.044.17.36.36 0 01-.05.055.55.55 0 01-.056.073l-3.75 3.208a.765.765 0 01-.589.153c-.22-.03-.401-.144-.475-.298-.075-.154-.031-.326.114-.45l2.869-2.453h-9.894c-.345 0-.625-.205-.625-.458s.28-.458.625-.458h9.894L105.9 5.09c-.145-.125-.189-.297-.114-.451.074-.154.255-.268.475-.298a.765.765 0 01.589.153l3.75 3.208a.55.55 0 01.056.073.36.36 0 01.05.055.413.413 0 01.044.17z" fill="#1D1513"/></svg>